<svg version="1.2" baseProfile="tiny" viewBox="0 0 101.205 101.073" xmlns:xlink="http://www.w3.org/1999/xlink" xmlns="http://www.w3.org/2000/svg">
<path style="fill:#ffffff;" d="M63.4171,50.9135L62.0791,50.9105C62.1591,50.8589,63.5851,49.9513,63.5851,49.9513L87.1456,35.0268C87.1405,35.0127,87.1355,34.9996,87.1304,34.9864C87.1365,34.9834,87.1405,34.9793,87.1456,34.9763C87.1456,34.9763,87.1385,34.9804,87.1304,34.9854C85.497,30.5766,82.6653,27.0532,82.2969,26.6054L82.3272,26.5883L82.2959,26.6044C82.2706,26.5721,82.2554,26.5539,82.2554,26.5539L57.3458,39.6873L56.5179,40.7142L55.3935,11.5274C50.4153,10.6683,45.6121,11.5274,45.6121,11.5274L44.6648,40.031L45.0271,40.9275L18.8555,27.1977C15.621,31.0789,14.0199,35.795,14.0199,35.795L37.9286,50.6911L39.1167,50.7356L38.9923,50.867L14.274,66.4828C16.0187,71.2231,18.8494,74.4069,18.8494,74.4069L44.178,61.9689L44.8419,60.6064L45.9289,90.2794C50.9071,91.1375,55.2367,90.3138,55.2367,90.3138L57.0746,62.0336L56.2801,60.6458L82.6319,74.6798C85.8643,70.7986,87.2063,66.7557,87.2063,66.7557L63.4171,50.9135Z"/>
</svg>