<svg version="1.2" baseProfile="tiny" id="EdgeSVG_07HoL" x="0px" y="0px" width="101.205px" height="101.073px" viewBox="0 0 101.205 101.073" xmlns:xlink="http://www.w3.org/1999/xlink" xmlns="http://www.w3.org/2000/svg">
  <linearGradient id="SVGID_2_" gradientUnits="userSpaceOnUse" x1="50.4531" y1="96.9814" x2="50.4531" y2="3.793">
    <stop offset="0" style="stop-color:#FFFFFF;stop-opacity:0.05"/>
    <stop offset="0.0229" style="stop-color:#E3E3E3;stop-opacity:0.0661"/>
    <stop offset="0.0738" style="stop-color:#A9A9A9;stop-opacity:0.1019"/>
    <stop offset="0.1249" style="stop-color:#787878;stop-opacity:0.1377"/>
    <stop offset="0.1749" style="stop-color:#505050;stop-opacity:0.1729"/>
    <stop offset="0.2237" style="stop-color:#303030;stop-opacity:0.2072"/>
    <stop offset="0.2709" style="stop-color:#1A1A1A;stop-opacity:0.2403"/>
    <stop offset="0.3157" style="stop-color:#0C0C0C;stop-opacity:0.2718"/>
    <stop offset="0.3558" style="stop-color:#080808;stop-opacity:0.3"/>
    <stop offset="1" style="stop-color:#000000;stop-opacity:0.5"/>
  </linearGradient>
  <path fill="url(#SVGID_2_)" d="M3.792,3.792v93.189h93.321V3.792H3.792z M50.565,93.143c-23.529,0-42.604-19.017-42.604-42.546&#xD;&#xA;&#x9;&#x9;c0-23.53,19.075-42.604,42.604-42.604s42.604,19.075,42.604,42.604C93.169,74.126,74.095,93.143,50.565,93.143z"/>
  <linearGradient id="SVGID_3_" gradientUnits="userSpaceOnUse" x1="50.4526" y1="3.7925" x2="50.4526" y2="96.9819">
    <stop offset="0" style="stop-color:#FFFFFF;stop-opacity:0.05"/>
    <stop offset="0.0229" style="stop-color:#E3E3E3;stop-opacity:0.0661"/>
    <stop offset="0.0738" style="stop-color:#A9A9A9;stop-opacity:0.1019"/>
    <stop offset="0.1249" style="stop-color:#787878;stop-opacity:0.1377"/>
    <stop offset="0.1749" style="stop-color:#505050;stop-opacity:0.1729"/>
    <stop offset="0.2237" style="stop-color:#303030;stop-opacity:0.2072"/>
    <stop offset="0.2709" style="stop-color:#1A1A1A;stop-opacity:0.2403"/>
    <stop offset="0.3157" style="stop-color:#0C0C0C;stop-opacity:0.2718"/>
    <stop offset="0.3558" style="stop-color:#080808;stop-opacity:0.3"/>
    <stop offset="1" style="stop-color:#000000;stop-opacity:0.5"/>
  </linearGradient>
  <path fill="url(#SVGID_3_)" d="M3.792,3.792v93.189h93.321V3.792H3.792z M50.565,93.143c-23.529,0-42.604-19.017-42.604-42.546&#xD;&#xA;&#x9;&#x9;c0-23.53,19.075-42.604,42.604-42.604s42.604,19.075,42.604,42.604C93.169,74.126,74.095,93.143,50.565,93.143z"/>
  <linearGradient id="SVGID_4_" gradientUnits="userSpaceOnUse" x1="50.6021" y1="1.5" x2="50.602" y2="99.5737">
    <stop offset="0" style="stop-color:#FFFFFF;stop-opacity:0.4"/>
    <stop offset="0.0862" style="stop-color:#F4F4F4;stop-opacity:0.3828"/>
    <stop offset="0.2377" style="stop-color:#D7D7D7;stop-opacity:0.3525"/>
    <stop offset="0.4365" style="stop-color:#A7A7A7;stop-opacity:0.3127"/>
    <stop offset="0.6752" style="stop-color:#656565;stop-opacity:0.265"/>
    <stop offset="0.9447" style="stop-color:#121212;stop-opacity:0.2111"/>
    <stop offset="1" style="stop-color:#000000;stop-opacity:0.2"/>
  </linearGradient>
  <path fill="url(#SVGID_4_)" d="M1.5,1.5v98.073h98.205V1.5H1.5z M97.113,96.981H3.792V3.792h93.321V96.981z"/>
  <linearGradient id="SVGID_5_" gradientUnits="userSpaceOnUse" x1="50.6069" y1="60.5352" x2="50.6069" y2="40.9775">
    <stop offset="0" style="stop-color:#FFFFFF;stop-opacity:0.05"/>
    <stop offset="0.0229" style="stop-color:#E3E3E3;stop-opacity:0.0661"/>
    <stop offset="0.0738" style="stop-color:#A9A9A9;stop-opacity:0.1019"/>
    <stop offset="0.1249" style="stop-color:#787878;stop-opacity:0.1377"/>
    <stop offset="0.1749" style="stop-color:#505050;stop-opacity:0.1729"/>
    <stop offset="0.2237" style="stop-color:#303030;stop-opacity:0.2072"/>
    <stop offset="0.2709" style="stop-color:#1A1A1A;stop-opacity:0.2403"/>
    <stop offset="0.3157" style="stop-color:#0C0C0C;stop-opacity:0.2718"/>
    <stop offset="0.3558" style="stop-color:#080808;stop-opacity:0.3"/>
    <stop offset="1" style="stop-color:#000000;stop-opacity:0.5"/>
  </linearGradient>
  <circle fill="url(#SVGID_5_)" cx="50.607" cy="50.756" r="9.779"/>
  <linearGradient id="SVGID_6_" gradientUnits="userSpaceOnUse" x1="50.5679" y1="60.6138" x2="50.5679" y2="40.9761">
    <stop offset="0" style="stop-color:#FFFFFF;stop-opacity:0.3"/>
    <stop offset="0.5153" style="stop-color:#080808;stop-opacity:0.3"/>
    <stop offset="1" style="stop-color:#000000;stop-opacity:0.5"/>
  </linearGradient>
  <path fill="url(#SVGID_6_)" d="M50.568,60.614c-5.415,0-9.819-4.404-9.819-9.818c0-5.415,4.404-9.819,9.819-9.819&#xD;&#xA;&#x9;&#x9;c5.414,0,9.819,4.405,9.819,9.819C60.387,56.209,55.981,60.614,50.568,60.614z M50.568,41.133c-5.328,0-9.662,4.334-9.662,9.662&#xD;&#xA;&#x9;&#x9;c0,5.327,4.334,9.662,9.662,9.662s9.662-4.334,9.662-9.662C60.229,45.467,55.896,41.133,50.568,41.133z"/>
  <radialGradient id="SVGID_7_" cx="50.6069" cy="50.7559" r="10.7253" gradientUnits="userSpaceOnUse">
    <stop offset="0.908" style="stop-color:#FFFFFF"/>
    <stop offset="0.9088" style="stop-color:#FAFAFA;stop-opacity:0.9932"/>
    <stop offset="0.919" style="stop-color:#C0C0C0;stop-opacity:0.9101"/>
    <stop offset="0.9295" style="stop-color:#8D8D8D;stop-opacity:0.8248"/>
    <stop offset="0.94" style="stop-color:#626262;stop-opacity:0.7393"/>
    <stop offset="0.9505" style="stop-color:#3E3E3E;stop-opacity:0.6533"/>
    <stop offset="0.9611" style="stop-color:#232323;stop-opacity:0.5669"/>
    <stop offset="0.9718" style="stop-color:#0F0F0F;stop-opacity:0.4797"/>
    <stop offset="0.9827" style="stop-color:#040404;stop-opacity:0.3914"/>
    <stop offset="0.9939" style="stop-color:#000000;stop-opacity:0.3"/>
    <stop offset="1" style="stop-color:#FFFFFF;stop-opacity:0.2"/>
  </radialGradient>
  <path fill="url(#SVGID_7_)" d="M50.606,40.031c-5.923,0-10.725,4.802-10.725,10.726c0,5.923,4.801,10.725,10.725,10.725&#xD;&#xA;&#x9;&#x9;s10.726-4.802,10.726-10.725C61.332,44.833,56.53,40.031,50.606,40.031z M50.606,60.535c-5.4,0-9.779-4.378-9.779-9.779&#xD;&#xA;&#x9;&#x9;c0-5.401,4.378-9.779,9.779-9.779c5.401,0,9.779,4.378,9.779,9.779C60.386,56.157,56.007,60.535,50.606,60.535z"/>
  <linearGradient id="SVGID_8_" gradientUnits="userSpaceOnUse" x1="50.6069" y1="40.0308" x2="50.6069" y2="61.4814">
    <stop offset="0.0123" style="stop-color:#FFFFFF;stop-opacity:0.5"/>
    <stop offset="0.1065" style="stop-color:#FCFCFC;stop-opacity:0.467"/>
    <stop offset="0.1811" style="stop-color:#F2F2F2;stop-opacity:0.4408"/>
    <stop offset="0.2491" style="stop-color:#E1E1E1;stop-opacity:0.417"/>
    <stop offset="0.313" style="stop-color:#CACACA;stop-opacity:0.3946"/>
    <stop offset="0.3742" style="stop-color:#ABABAB;stop-opacity:0.3731"/>
    <stop offset="0.4332" style="stop-color:#868686;stop-opacity:0.3524"/>
    <stop offset="0.4906" style="stop-color:#595959;stop-opacity:0.3323"/>
    <stop offset="0.5453" style="stop-color:#272727;stop-opacity:0.3131"/>
    <stop offset="0.5828" style="stop-color:#000000;stop-opacity:0.3"/>
  </linearGradient>
  <path fill="url(#SVGID_8_)" d="M50.606,40.031c-5.923,0-10.725,4.802-10.725,10.726c0,5.923,4.801,10.725,10.725,10.725&#xD;&#xA;&#x9;&#x9;s10.726-4.802,10.726-10.725C61.332,44.833,56.53,40.031,50.606,40.031z M50.606,60.535c-5.4,0-9.779-4.378-9.779-9.779&#xD;&#xA;&#x9;&#x9;c0-5.401,4.378-9.779,9.779-9.779c5.401,0,9.779,4.378,9.779,9.779C60.386,56.157,56.007,60.535,50.606,60.535z"/>
  <radialGradient id="SVGID_9_" cx="50.6064" cy="50.6064" r="2.2661" gradientUnits="userSpaceOnUse">
    <stop offset="0" style="stop-color:#FFFFFF;stop-opacity:0.3"/>
    <stop offset="0.3726" style="stop-color:#FDFDFD;stop-opacity:0.3745"/>
    <stop offset="0.5069" style="stop-color:#F6F6F6;stop-opacity:0.4014"/>
    <stop offset="0.6026" style="stop-color:#EBEBEB;stop-opacity:0.4205"/>
    <stop offset="0.68" style="stop-color:#DADADA;stop-opacity:0.436"/>
    <stop offset="0.7463" style="stop-color:#C4C4C4;stop-opacity:0.4493"/>
    <stop offset="0.805" style="stop-color:#A8A8A8;stop-opacity:0.461"/>
    <stop offset="0.8581" style="stop-color:#888888;stop-opacity:0.4716"/>
    <stop offset="0.9069" style="stop-color:#626262;stop-opacity:0.4814"/>
    <stop offset="0.9523" style="stop-color:#373737;stop-opacity:0.4905"/>
    <stop offset="0.9926" style="stop-color:#090909;stop-opacity:0.4985"/>
    <stop offset="1" style="stop-color:#000000;stop-opacity:0.5"/>
  </radialGradient>
  <circle fill="url(#SVGID_9_)" cx="50.607" cy="50.606" r="2.266"/>
  <radialGradient id="SVGID_10_" cx="50.6064" cy="50.6064" r="1.533" gradientUnits="userSpaceOnUse">
    <stop offset="0.0429" style="stop-color:#FFFFFF;stop-opacity:0.5"/>
    <stop offset="0.3996" style="stop-color:#FDFDFD;stop-opacity:0.3882"/>
    <stop offset="0.5281" style="stop-color:#F6F6F6;stop-opacity:0.3479"/>
    <stop offset="0.6196" style="stop-color:#EBEBEB;stop-opacity:0.3192"/>
    <stop offset="0.6937" style="stop-color:#DADADA;stop-opacity:0.296"/>
    <stop offset="0.7572" style="stop-color:#C4C4C4;stop-opacity:0.2761"/>
    <stop offset="0.8133" style="stop-color:#A8A8A8;stop-opacity:0.2585"/>
    <stop offset="0.8642" style="stop-color:#888888;stop-opacity:0.2426"/>
    <stop offset="0.9109" style="stop-color:#626262;stop-opacity:0.2279"/>
    <stop offset="0.9544" style="stop-color:#373737;stop-opacity:0.2143"/>
    <stop offset="0.9929" style="stop-color:#090909;stop-opacity:0.2022"/>
    <stop offset="1" style="stop-color:#000000;stop-opacity:0.2"/>
  </radialGradient>
  <circle fill="url(#SVGID_10_)" cx="50.607" cy="50.606" r="1.533"/>
  <radialGradient id="SVGID_11_" cx="50.6069" cy="50.6064" r="1.6499" gradientUnits="userSpaceOnUse">
    <stop offset="0.0613" style="stop-color:#000000;stop-opacity:0.2"/>
    <stop offset="1" style="stop-color:#000000;stop-opacity:0.2"/>
  </radialGradient>
  <path fill="url(#SVGID_11_)" d="M50.606,52.256c-0.909,0-1.649-0.74-1.649-1.65c0-0.91,0.74-1.65,1.649-1.65&#xD;&#xA;&#x9;&#x9;c0.91,0,1.65,0.74,1.65,1.65C52.257,51.516,51.516,52.256,50.606,52.256z M50.606,49.191c-0.78,0-1.415,0.635-1.415,1.416&#xD;&#xA;&#x9;&#x9;s0.635,1.416,1.415,1.416c0.781,0,1.416-0.635,1.416-1.416S51.387,49.191,50.606,49.191z"/>
  <linearGradient id="SVGID_12_" gradientUnits="userSpaceOnUse" x1="50.606" y1="53.7876" x2="50.606" y2="50.9658">
    <stop offset="0.0123" style="stop-color:#080808;stop-opacity:0.1"/>
    <stop offset="1" style="stop-color:#000000;stop-opacity:0.5"/>
  </linearGradient>
  <path fill="url(#SVGID_12_)" d="M52.843,50.977c0,0-0.502,1.832-2.236,1.832c-1.728,0-2.237-1.843-2.237-1.843&#xD;&#xA;&#x9;&#x9;c0,1.432,0.805,2.822,2.237,2.822C52.039,53.788,52.843,52.41,52.843,50.977z"/>
  <linearGradient id="SVGID_13_" gradientUnits="userSpaceOnUse" x1="32.2866" y1="33.5869" x2="26.2905" y2="43.9725">
    <stop offset="0" style="stop-color:#000000;stop-opacity:0.2"/>
    <stop offset="0.024" style="stop-color:#0C0C0C;stop-opacity:0.2159"/>
    <stop offset="0.0726" style="stop-color:#1C1C1C;stop-opacity:0.248"/>
    <stop offset="0.1332" style="stop-color:#282828;stop-opacity:0.288"/>
    <stop offset="0.2181" style="stop-color:#2F2F2F;stop-opacity:0.3441"/>
    <stop offset="0.454" style="stop-color:#313131;stop-opacity:0.5"/>
    <stop offset="0.7546" style="stop-color:#000000;stop-opacity:0.1"/>
  </linearGradient>
  <path fill="url(#SVGID_13_)" d="M45.283,41.44l-0.254-0.497l-12.604-6.582l-13.57-7.163c-3.233,3.881-4.835,8.597-4.835,8.597&#xD;&#xA;&#x9;&#x9;l23.909,14.896l1.953,0.064c0,0-0.307-2.372,1.345-5.302C42.879,42.525,45.283,41.44,45.283,41.44z"/>
  <linearGradient id="SVGID_14_" gradientUnits="userSpaceOnUse" x1="56.5181" y1="26.3135" x2="44.666" y2="26.3135">
    <stop offset="0" style="stop-color:#FFFFFF;stop-opacity:0.2"/>
    <stop offset="0.0038" style="stop-color:#F7F7F7;stop-opacity:0.2025"/>
    <stop offset="0.0244" style="stop-color:#CDCDCD;stop-opacity:0.2161"/>
    <stop offset="0.0475" style="stop-color:#A8A8A8;stop-opacity:0.2314"/>
    <stop offset="0.0726" style="stop-color:#878787;stop-opacity:0.248"/>
    <stop offset="0.1005" style="stop-color:#6C6C6C;stop-opacity:0.2664"/>
    <stop offset="0.1318" style="stop-color:#565656;stop-opacity:0.2871"/>
    <stop offset="0.1685" style="stop-color:#454545;stop-opacity:0.3113"/>
    <stop offset="0.2138" style="stop-color:#393939;stop-opacity:0.3413"/>
    <stop offset="0.2774" style="stop-color:#333333;stop-opacity:0.3833"/>
    <stop offset="0.454" style="stop-color:#313131;stop-opacity:0.5"/>
    <stop offset="0.7546" style="stop-color:#000000;stop-opacity:0.1"/>
  </linearGradient>
  <path fill="url(#SVGID_14_)" d="M55.991,41.482l0.527-0.769L55.97,26.935l-0.576-15.409c-4.979-0.859-9.782,0-9.782,0&#xD;&#xA;&#x9;&#x9;l-0.947,28.563l0.617,1.351c0,0,2.044-1.408,5.408-1.442C54.054,39.964,55.991,41.482,55.991,41.482z"/>
  <linearGradient id="SVGID_15_" gradientUnits="userSpaceOnUse" x1="74.79" y1="43.5322" x2="68.7642" y2="33.0951">
    <stop offset="0" style="stop-color:#FFFFFF;stop-opacity:0.2"/>
    <stop offset="0.0038" style="stop-color:#F7F7F7;stop-opacity:0.2025"/>
    <stop offset="0.0244" style="stop-color:#CDCDCD;stop-opacity:0.2161"/>
    <stop offset="0.0475" style="stop-color:#A8A8A8;stop-opacity:0.2314"/>
    <stop offset="0.0726" style="stop-color:#878787;stop-opacity:0.248"/>
    <stop offset="0.1005" style="stop-color:#6C6C6C;stop-opacity:0.2664"/>
    <stop offset="0.1318" style="stop-color:#565656;stop-opacity:0.2871"/>
    <stop offset="0.1685" style="stop-color:#454545;stop-opacity:0.3113"/>
    <stop offset="0.2138" style="stop-color:#393939;stop-opacity:0.3413"/>
    <stop offset="0.2774" style="stop-color:#333333;stop-opacity:0.3833"/>
    <stop offset="0.454" style="stop-color:#313131;stop-opacity:0.5"/>
    <stop offset="0.7546" style="stop-color:#000000;stop-opacity:0.1"/>
  </linearGradient>
  <path fill="url(#SVGID_15_)" d="M61.329,50.886l0.74-0.01l11.884-7.662l13.192-8.187c-1.744-4.741-4.891-8.472-4.891-8.472&#xD;&#xA;&#x9;&#x9;L57.346,39.687l-1.273,1.708c0,0,2.161,1.001,3.872,3.897C61.655,48.187,61.329,50.886,61.329,50.886z"/>
  <linearGradient id="SVGID_16_" gradientUnits="userSpaceOnUse" x1="44.8418" y1="75.3291" x2="57.0747" y2="75.3291">
    <stop offset="0" style="stop-color:#FFFFFF;stop-opacity:0.2"/>
    <stop offset="0.0038" style="stop-color:#F7F7F7;stop-opacity:0.2025"/>
    <stop offset="0.0244" style="stop-color:#CDCDCD;stop-opacity:0.2161"/>
    <stop offset="0.0475" style="stop-color:#A8A8A8;stop-opacity:0.2314"/>
    <stop offset="0.0726" style="stop-color:#878787;stop-opacity:0.248"/>
    <stop offset="0.1005" style="stop-color:#6C6C6C;stop-opacity:0.2664"/>
    <stop offset="0.1318" style="stop-color:#565656;stop-opacity:0.2871"/>
    <stop offset="0.1685" style="stop-color:#454545;stop-opacity:0.3113"/>
    <stop offset="0.2138" style="stop-color:#393939;stop-opacity:0.3413"/>
    <stop offset="0.2774" style="stop-color:#333333;stop-opacity:0.3833"/>
    <stop offset="0.454" style="stop-color:#313131;stop-opacity:0.5"/>
    <stop offset="0.7546" style="stop-color:#000000;stop-opacity:0.1"/>
  </linearGradient>
  <path fill="url(#SVGID_16_)" d="M45.144,59.987l-0.302,0.619l0.442,13.995l0.645,15.678c4.978,0.859,9.308,0.035,9.308,0.035&#xD;&#xA;&#x9;&#x9;l1.838-28.28l-1.106-1.928c0,0-2.156,1.307-5.519,1.341C47.086,61.481,45.144,59.987,45.144,59.987z"/>
  <linearGradient id="SVGID_17_" gradientUnits="userSpaceOnUse" x1="69.1299" y1="68.0664" x2="75.1293" y2="57.6752">
    <stop offset="0" style="stop-color:#FFFFFF;stop-opacity:0.2"/>
    <stop offset="0.0038" style="stop-color:#F7F7F7;stop-opacity:0.2025"/>
    <stop offset="0.0244" style="stop-color:#CDCDCD;stop-opacity:0.2161"/>
    <stop offset="0.0475" style="stop-color:#A8A8A8;stop-opacity:0.2314"/>
    <stop offset="0.0726" style="stop-color:#878787;stop-opacity:0.248"/>
    <stop offset="0.1005" style="stop-color:#6C6C6C;stop-opacity:0.2664"/>
    <stop offset="0.1318" style="stop-color:#565656;stop-opacity:0.2871"/>
    <stop offset="0.1685" style="stop-color:#454545;stop-opacity:0.3113"/>
    <stop offset="0.2138" style="stop-color:#393939;stop-opacity:0.3413"/>
    <stop offset="0.2774" style="stop-color:#333333;stop-opacity:0.3833"/>
    <stop offset="0.454" style="stop-color:#313131;stop-opacity:0.5"/>
    <stop offset="0.7546" style="stop-color:#000000;stop-opacity:0.1"/>
  </linearGradient>
  <path fill="url(#SVGID_17_)" d="M56.279,60.647L82.632,74.68c3.232-3.881,4.574-7.924,4.574-7.924L63.417,50.913l-2.085-0.002&#xD;&#xA;&#x9;&#x9;c0,0,0.052,2.346-1.601,5.275c-1.277,2.265-3.035,3.48-3.766,3.915L56.279,60.647z"/>
  <linearGradient id="SVGID_18_" gradientUnits="userSpaceOnUse" x1="26.5098" y1="58.0166" x2="32.6387" y2="68.6322">
    <stop offset="0" style="stop-color:#FFFFFF;stop-opacity:0.2"/>
    <stop offset="0.0038" style="stop-color:#F7F7F7;stop-opacity:0.2025"/>
    <stop offset="0.0244" style="stop-color:#CDCDCD;stop-opacity:0.2161"/>
    <stop offset="0.0475" style="stop-color:#A8A8A8;stop-opacity:0.2314"/>
    <stop offset="0.0726" style="stop-color:#878787;stop-opacity:0.248"/>
    <stop offset="0.1005" style="stop-color:#6C6C6C;stop-opacity:0.2664"/>
    <stop offset="0.1318" style="stop-color:#565656;stop-opacity:0.2871"/>
    <stop offset="0.1685" style="stop-color:#454545;stop-opacity:0.3113"/>
    <stop offset="0.2138" style="stop-color:#393939;stop-opacity:0.3413"/>
    <stop offset="0.2774" style="stop-color:#333333;stop-opacity:0.3833"/>
    <stop offset="0.454" style="stop-color:#313131;stop-opacity:0.5"/>
    <stop offset="0.7546" style="stop-color:#000000;stop-opacity:0.1"/>
  </linearGradient>
  <path fill="url(#SVGID_18_)" d="M39.882,50.756l-0.765-0.02l-11.759,7.305l-13.084,8.441c1.745,4.74,4.575,7.924,4.575,7.924&#xD;&#xA;&#x9;&#x9;l25.329-12.438l0.966-1.982c0,0-2.114-1.28-3.826-4.176S39.882,50.756,39.882,50.756z"/>
  <linearGradient id="SVGID_19_" gradientUnits="userSpaceOnUse" x1="47.8423" y1="59.9873" x2="47.8423" y2="62.2134">
    <stop offset="0.2699" style="stop-color:#313131;stop-opacity:0.5"/>
    <stop offset="0.8773" style="stop-color:#000000;stop-opacity:0"/>
  </linearGradient>
  <path fill="url(#SVGID_19_)" d="M45.144,59.987l-0.302,0.619l0.052,1.607l5.95-0.732C50.843,61.481,47.83,61.647,45.144,59.987z"/>
  <linearGradient id="SVGID_20_" gradientUnits="userSpaceOnUse" x1="43.7163" y1="43.4121" x2="40.1218" y2="42.1038">
    <stop offset="0.0123" style="stop-color:#313131;stop-opacity:0.5"/>
    <stop offset="0.0332" style="stop-color:#2B2B2B;stop-opacity:0.4826"/>
    <stop offset="0.1255" style="stop-color:#181818;stop-opacity:0.4058"/>
    <stop offset="0.2326" style="stop-color:#0A0A0A;stop-opacity:0.3168"/>
    <stop offset="0.3668" style="stop-color:#020202;stop-opacity:0.2052"/>
    <stop offset="0.6135" style="stop-color:#000000;stop-opacity:0"/>
  </linearGradient>
  <path fill="url(#SVGID_20_)" d="M45.283,41.44l-0.229-0.5l-1.66-0.852l-2.284,5.58C41.109,45.669,42.487,42.91,45.283,41.44z"/>
  <linearGradient id="SVGID_21_" gradientUnits="userSpaceOnUse" x1="43.7163" y1="43.4121" x2="40.1218" y2="42.1038">
    <stop offset="0.0123" style="stop-color:#313131;stop-opacity:0.5"/>
    <stop offset="0.0332" style="stop-color:#2B2B2B;stop-opacity:0.4826"/>
    <stop offset="0.1255" style="stop-color:#181818;stop-opacity:0.4058"/>
    <stop offset="0.2326" style="stop-color:#0A0A0A;stop-opacity:0.3168"/>
    <stop offset="0.3668" style="stop-color:#020202;stop-opacity:0.2052"/>
    <stop offset="0.6135" style="stop-color:#000000;stop-opacity:0"/>
  </linearGradient>
  <path fill="url(#SVGID_21_)" d="M45.283,41.44l-0.229-0.5l-1.66-0.852l-2.284,5.58C41.109,45.669,42.487,42.91,45.283,41.44z"/>
  <linearGradient id="SVGID_22_" gradientUnits="userSpaceOnUse" x1="41.3091" y1="51.5806" x2="39.3049" y2="55.0519">
    <stop offset="0.0552" style="stop-color:#313131;stop-opacity:0.5"/>
    <stop offset="0.2776" style="stop-color:#161616;stop-opacity:0.3072"/>
    <stop offset="0.4788" style="stop-color:#060606;stop-opacity:0.1327"/>
    <stop offset="0.6319" style="stop-color:#000000;stop-opacity:0"/>
  </linearGradient>
  <path fill="url(#SVGID_22_)" d="M39.882,50.756l-0.765-0.02l-1.263,0.811l4.055,5.008C41.909,56.555,39.787,53.913,39.882,50.756z"/>
  <linearGradient id="SVGID_23_" gradientUnits="userSpaceOnUse" x1="57.2861" y1="57.8228" x2="59.2761" y2="58.9717">
    <stop offset="0.2699" style="stop-color:#313131;stop-opacity:0.5"/>
    <stop offset="0.8773" style="stop-color:#000000;stop-opacity:0"/>
  </linearGradient>
  <path fill="url(#SVGID_23_)" d="M55.968,60.106l0.312,0.54l1.521,0.883l2.159-5.571C59.96,55.958,58.75,58.61,55.968,60.106z"/>
  <linearGradient id="SVGID_24_" gradientUnits="userSpaceOnUse" x1="53.3657" y1="41.4824" x2="53.3657" y2="39.0381">
    <stop offset="0.0123" style="stop-color:#313131;stop-opacity:0.5"/>
    <stop offset="0.8528" style="stop-color:#000000;stop-opacity:0"/>
  </linearGradient>
  <path fill="url(#SVGID_24_)" d="M55.991,41.482l0.541-0.593l-0.086-1.851L50.2,39.973C50.2,39.973,53.343,39.762,55.991,41.482z"/>
  <linearGradient id="SVGID_25_" gradientUnits="userSpaceOnUse" x1="60.0254" y1="48.5474" x2="62.1033" y2="47.3593">
    <stop offset="0.0123" style="stop-color:#313131;stop-opacity:0.5"/>
    <stop offset="0.8528" style="stop-color:#000000;stop-opacity:0"/>
  </linearGradient>
  <path fill="url(#SVGID_25_)" d="M61.374,50.906l0.705,0.004l1.506-0.959l-3.773-4.821C59.812,45.13,61.554,47.754,61.374,50.906z"/>
  <linearGradient id="SVGID_26_" gradientUnits="userSpaceOnUse" x1="47.8423" y1="59.9873" x2="47.8423" y2="62.2134">
    <stop offset="0.2699" style="stop-color:#313131;stop-opacity:0.5"/>
    <stop offset="0.8773" style="stop-color:#000000;stop-opacity:0"/>
  </linearGradient>
  <path fill="url(#SVGID_26_)" d="M45.144,59.987l-0.302,0.619l0.052,1.607l5.95-0.732C50.843,61.481,47.83,61.647,45.144,59.987z"/>
  <linearGradient id="SVGID_27_" gradientUnits="userSpaceOnUse" x1="41.3091" y1="51.5806" x2="39.3049" y2="55.0519">
    <stop offset="0.0552" style="stop-color:#313131;stop-opacity:0.5"/>
    <stop offset="0.2776" style="stop-color:#161616;stop-opacity:0.3072"/>
    <stop offset="0.4788" style="stop-color:#060606;stop-opacity:0.1327"/>
    <stop offset="0.6319" style="stop-color:#000000;stop-opacity:0"/>
  </linearGradient>
  <path fill="url(#SVGID_27_)" d="M39.882,50.756l-0.765-0.02l-1.263,0.811l4.055,5.008C41.909,56.555,39.787,53.913,39.882,50.756z"/>
  <linearGradient id="SVGID_28_" gradientUnits="userSpaceOnUse" x1="57.2769" y1="57.8389" x2="59.2669" y2="58.9878">
    <stop offset="0.2699" style="stop-color:#313131;stop-opacity:0.5"/>
    <stop offset="0.8773" style="stop-color:#000000;stop-opacity:0"/>
  </linearGradient>
  <path fill="url(#SVGID_28_)" d="M55.968,60.106l0.312,0.54l0.642,0.374l0.879,0.509L59.96,56C59.96,56,58.75,58.61,55.968,60.106z"/>
  <linearGradient id="SVGID_29_" gradientUnits="userSpaceOnUse" x1="53.3589" y1="41.4824" x2="53.3589" y2="39.0435">
    <stop offset="0.0123" style="stop-color:#313131;stop-opacity:0.5"/>
    <stop offset="0.8528" style="stop-color:#000000;stop-opacity:0"/>
  </linearGradient>
  <path fill="url(#SVGID_29_)" d="M55.991,41.482l0.527-0.769l-0.061-1.67l-6.257,0.93C50.2,39.973,53.1,39.635,55.991,41.482z"/>
  <linearGradient id="SVGID_30_" gradientUnits="userSpaceOnUse" x1="53.3589" y1="41.4824" x2="53.3589" y2="39.0435">
    <stop offset="0.0123" style="stop-color:#313131;stop-opacity:0.5"/>
    <stop offset="0.8528" style="stop-color:#000000;stop-opacity:0"/>
  </linearGradient>
  <path fill="url(#SVGID_30_)" d="M55.991,41.482l0.527-0.769l-0.061-1.67l-6.257,0.93C50.2,39.973,53.1,39.635,55.991,41.482z"/>
  <linearGradient id="SVGID_31_" gradientUnits="userSpaceOnUse" x1="60.0254" y1="48.5474" x2="62.1331" y2="47.3422">
    <stop offset="0.0123" style="stop-color:#313131;stop-opacity:0.5"/>
    <stop offset="0.8528" style="stop-color:#000000;stop-opacity:0"/>
  </linearGradient>
  <path fill="url(#SVGID_31_)" d="M61.374,50.906l0.705,0.004l1.535-0.978l-3.803-4.802C59.812,45.13,61.554,47.754,61.374,50.906z"/>
  <linearGradient id="SVGID_32_" gradientUnits="userSpaceOnUse" x1="55.9683" y1="67.2627" x2="82.6318" y2="67.2627">
    <stop offset="0" style="stop-color:#313131;stop-opacity:0.5"/>
    <stop offset="1" style="stop-color:#313131;stop-opacity:0.5"/>
  </linearGradient>
  <polygon fill="url(#SVGID_32_)" points="56.29,60.646 82.632,74.68 56.597,59.846 55.968,60.106 &#x9;"/>
  <linearGradient id="SVGID_33_" gradientUnits="userSpaceOnUse" x1="18.7949" y1="67.1973" x2="45.1436" y2="67.1973">
    <stop offset="0" style="stop-color:#313131;stop-opacity:0.5"/>
    <stop offset="1" style="stop-color:#313131;stop-opacity:0.5"/>
  </linearGradient>
  <polygon fill="url(#SVGID_33_)" points="18.849,74.407 18.795,74.28 43.65,61.245 45.144,59.987 44.178,61.969 &#x9;"/>
  <linearGradient id="SVGID_34_" gradientUnits="userSpaceOnUse" x1="14.0195" y1="43.2759" x2="39.8818" y2="43.2759">
    <stop offset="0" style="stop-color:#313131;stop-opacity:0.5"/>
    <stop offset="1" style="stop-color:#313131;stop-opacity:0.5"/>
  </linearGradient>
  <polygon fill="url(#SVGID_34_)" points="39.882,50.756 37.929,50.692 14.02,35.795 38.081,49.951 &#x9;"/>
  <linearGradient id="SVGID_35_" gradientUnits="userSpaceOnUse" x1="61.374" y1="42.9658" x2="87.0908" y2="42.9658">
    <stop offset="0" style="stop-color:#313131;stop-opacity:0.5"/>
    <stop offset="1" style="stop-color:#313131;stop-opacity:0.5"/>
  </linearGradient>
  <path fill="url(#SVGID_35_)" d="M62.079,50.91l-0.705-0.004l0.014-0.384l25.703-15.501C78.521,40.436,62.079,50.91,62.079,50.91z"/>
  <linearGradient id="SVGID_36_" gradientUnits="userSpaceOnUse" x1="18.855" y1="34.0708" x2="45.0283" y2="34.0708">
    <stop offset="0" style="stop-color:#FFFFFF;stop-opacity:0.5"/>
    <stop offset="1" style="stop-color:#FFFFFF;stop-opacity:0.5"/>
  </linearGradient>
  <polygon fill="url(#SVGID_36_)" points="43.609,40.897 18.855,27.198 45.028,40.943 &#x9;"/>
  <linearGradient id="SVGID_37_" gradientUnits="userSpaceOnUse" x1="55.3945" y1="26.1201" x2="56.5181" y2="26.1201">
    <stop offset="0" style="stop-color:#FFFFFF;stop-opacity:0.5"/>
    <stop offset="1" style="stop-color:#FFFFFF;stop-opacity:0.5"/>
  </linearGradient>
  <polygon fill="url(#SVGID_37_)" points="55.875,39.975 55.395,11.526 56.518,40.713 &#x9;"/>
  <linearGradient id="SVGID_38_" gradientUnits="userSpaceOnUse" x1="56.3833" y1="33.7197" x2="82.2725" y2="33.7197">
    <stop offset="0" style="stop-color:#FFFFFF;stop-opacity:0.5"/>
    <stop offset="1" style="stop-color:#FFFFFF;stop-opacity:0.5"/>
  </linearGradient>
  <polygon fill="url(#SVGID_38_)" points="56.383,40.978 57.346,39.687 82.272,26.462 &#x9;"/>
  <linearGradient id="SVGID_39_" gradientUnits="userSpaceOnUse" x1="13.9253" y1="58.7168" x2="39.1172" y2="58.7168">
    <stop offset="0" style="stop-color:#FFFFFF;stop-opacity:0.5"/>
    <stop offset="1" style="stop-color:#FFFFFF;stop-opacity:0.5"/>
  </linearGradient>
  <polygon fill="url(#SVGID_39_)" points="13.925,66.697 39.117,50.737 38.788,51.436 &#x9;"/>
  <linearGradient id="SVGID_40_" gradientUnits="userSpaceOnUse" x1="55.2363" y1="75.4053" x2="57.0747" y2="75.4053">
    <stop offset="0" style="stop-color:#FFFFFF;stop-opacity:0.5"/>
    <stop offset="1" style="stop-color:#FFFFFF;stop-opacity:0.5"/>
  </linearGradient>
  <polygon fill="url(#SVGID_40_)" points="55.236,90.314 56.192,60.496 57.075,62.034 &#x9;"/>
  <linearGradient id="SVGID_41_" gradientUnits="userSpaceOnUse" x1="62.2822" y1="58.5342" x2="86.3701" y2="58.5342">
    <stop offset="0" style="stop-color:#FFFFFF;stop-opacity:0.5"/>
    <stop offset="1" style="stop-color:#FFFFFF;stop-opacity:0.5"/>
  </linearGradient>
  <polygon fill="url(#SVGID_41_)" points="62.282,50.913 63.417,50.913 86.37,66.156 &#x9;"/>
  <linearGradient id="SVGID_42_" gradientUnits="userSpaceOnUse" x1="50.603" y1="99.5732" x2="50.603" y2="1.5005">
    <stop offset="0" style="stop-color:#FFFFFF;stop-opacity:0.4"/>
    <stop offset="0.0862" style="stop-color:#F4F4F4;stop-opacity:0.3828"/>
    <stop offset="0.2377" style="stop-color:#D7D7D7;stop-opacity:0.3525"/>
    <stop offset="0.4365" style="stop-color:#A7A7A7;stop-opacity:0.3127"/>
    <stop offset="0.6752" style="stop-color:#656565;stop-opacity:0.265"/>
    <stop offset="0.9447" style="stop-color:#121212;stop-opacity:0.2111"/>
    <stop offset="1" style="stop-color:#000000;stop-opacity:0.2"/>
  </linearGradient>
  <path fill="url(#SVGID_42_)" d="M99.705,99.573H1.5V1.5h98.205V99.573z M1.799,99.273h97.607V1.799H1.799V99.273z M97.413,97.28&#xD;&#xA;&#x9;&#x9;H3.792V3.792h93.621V97.28z M4.092,96.981h93.021V4.091H4.092V96.981z"/>
</svg>