<svg version="1.2" baseProfile="tiny" viewBox="0 0 18.000 18.000" xmlns:xlink="http://www.w3.org/1999/xlink" xmlns="http://www.w3.org/2000/svg">
<path style="fill:#ffffff;" d="M14.314,6.742c0.993,0.203,2.028-0.059,2.842-0.871   c0.822-0.822,0.999-1.792,0.721-2.731l-0.83,0.831l-0.872,0.871l-1.189-0.317l-1.189-0.321l-0.318-1.189l-0.319-1.19l0.87-0.871   l0.833-0.829c-0.941-0.28-1.911-0.104-2.732,0.718c-0.814,0.814-1.075,1.849-0.869,2.844c0.097,0.479-0.043,0.942-0.391,1.29   l-6.188,6.188c-0.311,0.31-0.709,0.453-1.145,0.411c-0.925-0.092-1.884,0.217-2.594,0.926c-1.257,1.26-1.257,3.299,0,4.555   c1.257,1.259,3.296,1.259,4.555,0c0.709-0.707,1.018-1.671,0.927-2.593c-0.042-0.438,0.098-0.834,0.41-1.145l6.189-6.19   C13.372,6.782,13.833,6.644,14.314,6.742L14.314,6.742z M5.599,14.143l-0.17,0.636l0.17,0.639l-0.467,0.467L4.963,16.52   l-0.639,0.172l-0.467,0.467l-0.638-0.169l-0.636,0.169l-0.467-0.467L1.479,16.52l-0.171-0.638l-0.466-0.465l0.169-0.637   l-0.171-0.638l0.467-0.469l0.17-0.637l0.638-0.17l0.467-0.469L3.22,12.57l0.637-0.172l0.467,0.469l0.637,0.17l0.171,0.639   L5.599,14.143z"/>
</svg>